<?xml version="1.0" encoding="UTF-8"?>
<svg xmlns="http://www.w3.org/2000/svg" width="54" height="48" viewBox="0 0 54 48" fill="none" role="img" aria-labelledby="atax-logo-title atax-logo-desc">
  <title id="atax-logo-title">ATAX accumulation grid logo (atax-dark.svg)</title>
  <desc id="atax-logo-desc">Five by five grid with accumulated A, A, X, T opacities and highlighted X diagonal</desc>
  <g fill="#ECEDEE">
    <rect x="3" y="0" width="8" height="8" fill="#8C8C8E" />
    <rect x="13" y="0" width="8" height="8" fill="#B6B7B8" />
    <rect x="23" y="0" width="8" height="8" fill="#B6B7B8" />
    <rect x="33" y="0" width="8" height="8" fill="#B6B7B8" />
    <rect x="43" y="0" width="8" height="8" fill="#8C8C8E" />
    <rect x="3" y="10" width="8" height="8" fill="#8C8C8E" />
    <rect x="13" y="10" width="8" height="8" fill="#616163" />
    <rect x="23" y="10" width="8" height="8" fill="#616163" />
    <rect x="33" y="10" width="8" height="8" fill="#616163" />
    <rect x="43" y="10" width="8" height="8" fill="#8C8C8E" />
    <rect x="3" y="20" width="8" height="8" fill="#8C8C8E" />
    <rect x="13" y="20" width="8" height="8" fill="#8C8C8E" />
    <rect x="23" y="20" width="8" height="8" fill="#ECEDEE" />
    <rect x="33" y="20" width="8" height="8" fill="#8C8C8E" />
    <rect x="43" y="20" width="8" height="8" fill="#8C8C8E" />
    <rect x="3" y="30" width="8" height="8" fill="#8C8C8E" />
    <rect x="13" y="30" width="8" height="8" fill="#616163" />
    <rect x="23" y="30" width="8" height="8" fill="#616163" />
    <rect x="33" y="30" width="8" height="8" fill="#616163" />
    <rect x="43" y="30" width="8" height="8" fill="#8C8C8E" />
    <rect x="3" y="40" width="8" height="8" fill="#B6B7B8" />
    <rect x="13" y="40" width="8" height="8" fill="#616163" />
    <rect x="23" y="40" width="8" height="8" fill="#616163" />
    <rect x="33" y="40" width="8" height="8" fill="#616163" />
    <rect x="43" y="40" width="8" height="8" fill="#B6B7B8" />
  </g>
  <g fill="#B4B6BB">
    <rect x="3" y="0" width="8" height="8" fill="#616163" />
    <rect x="43" y="0" width="8" height="8" fill="#616163" />
    <rect x="13" y="10" width="8" height="8" fill="#616163" />
    <rect x="33" y="10" width="8" height="8" fill="#616163" />
    <rect x="23" y="20" width="8" height="8" fill="#616163" />
    <rect x="13" y="30" width="8" height="8" fill="#616163" />
    <rect x="33" y="30" width="8" height="8" fill="#616163" />
    <rect x="3" y="40" width="8" height="8" fill="#616163" />
    <rect x="43" y="40" width="8" height="8" fill="#616163" />
  </g>
</svg>
