<?xml version='1.0' encoding='utf-8'?>
<svg xmlns="http://www.w3.org/2000/svg" width="54" height="48" viewBox="0 0 54 48" fill="none" role="img" aria-labelledby="main-logo-title" aria-describedby="main-logo-desc">
<title id="main-logo-title">FilipinaMeet main logo</title>
<desc id="main-logo-desc">FilipinaMeet main icon logo</desc>
<path fill-rule="evenodd" clip-rule="evenodd" d="M19.4817 8.18434C19.4817 7.12829 19.9438 5.87424 20.3398 5.21421C21.0658 3.89415 21.6598 3.56414 21.9898 3.10211C21.5278 3.03611 21.0658 2.7061 20.5378 2.50809C20.0098 2.31008 19.6797 2.17807 19.0857 2.04607C15.0595 0.858016 10.5713 1.58405 7.13919 3.89415C6.74317 4.15816 6.47916 4.35617 6.08315 4.68618C5.42312 5.21421 4.63108 5.94024 4.10306 6.53427C0.604906 10.8905 -0.517143 15.9727 1.00092 21.3189C2.32098 25.9391 5.81913 29.2393 9.05328 32.4734L11.0334 34.3215C11.2314 34.5855 11.2974 34.5855 11.5614 34.7835C11.8914 35.0475 12.7494 35.9716 13.0795 36.0376C13.0795 34.7835 13.0795 33.5955 13.0134 32.4734C12.8814 31.3514 12.3534 28.8432 12.8814 27.6552C12.1554 27.1272 11.3634 26.4011 10.7033 25.7411C10.5713 25.6091 10.4393 25.5431 10.3073 25.4111C10.2413 25.2791 10.1753 25.2131 10.0433 25.0811C7.86522 22.771 6.80918 20.8569 6.47916 17.7548C6.41316 17.4247 6.47916 17.4907 6.21515 17.2927C6.08315 17.2267 6.01714 17.1607 5.88514 17.0287C5.55512 16.7647 5.42312 16.6987 5.1591 16.3687C4.82909 16.0387 3.97105 15.3787 3.97105 14.9826C4.16906 14.9166 4.43307 14.6526 4.69708 14.5206C7.2712 12.9365 6.54517 14.2566 7.2712 12.4745C7.60121 11.6165 8.45925 10.4284 9.11928 9.76841C11.4294 7.3923 15.5876 6.53427 18.7557 7.85432C19.0197 8.05233 19.1517 8.11833 19.4817 8.18434Z" fill="#3A3A3A" fill-opacity=".7" />
<path fill-rule="evenodd" clip-rule="evenodd" d="M32.2207 3.23414C32.4847 3.56415 33.2107 4.15818 33.8048 5.28023C34.4648 6.60029 34.3988 7.12831 34.6628 8.18436L36.3129 7.59033C37.5669 7.26032 38.161 7.26032 39.415 7.26032C40.8671 7.26032 42.0551 7.78834 43.0452 8.31636C44.4312 8.97639 45.8173 10.4285 46.4773 11.8145C47.1374 13.0686 47.0053 13.4646 47.5334 13.6626C48.3254 13.9266 49.7775 14.5206 50.1735 15.1807C49.9755 15.5107 48.6554 16.7647 48.1934 17.0947C47.7314 17.4248 47.7314 17.3588 47.6654 17.9528C47.5994 18.7448 47.4014 19.4048 47.2034 20.1309C46.8073 21.1869 46.8733 20.9889 46.3453 21.979C45.6853 23.431 44.5632 24.6191 43.5072 25.7411C43.0452 26.1371 41.5271 27.4572 41.2631 27.5892C41.2631 28.0512 41.3951 28.5132 41.3951 29.7013C41.3951 31.1534 40.9991 32.7374 40.9991 35.4435C40.9991 35.7736 41.0651 35.7736 41.0651 36.0376C41.2631 35.9056 41.3951 35.8396 41.5931 35.7076L45.2233 32.3414C45.8833 31.6154 47.0714 30.4933 47.6654 29.8333C47.7974 29.6353 47.9294 29.5033 48.1274 29.3053C48.5234 28.9753 48.7214 28.6452 49.1174 28.2492C49.2494 28.1172 49.3155 27.9192 49.5135 27.7872C49.6455 27.5892 49.7775 27.3912 49.9095 27.1932C52.4836 23.959 53.7376 20.5929 53.7376 16.3027C53.7376 10.6265 50.0415 5.34623 45.3553 2.97013C41.7251 1.12205 37.3689 0.990042 33.4748 2.50811C33.0787 2.70612 32.4187 2.90413 32.2207 3.23414Z" fill="#3A3A3A" fill-opacity=".75" />
<path fill-rule="evenodd" clip-rule="evenodd" d="M16.1816 38.8756C16.3136 39.1396 16.5777 39.2717 16.8417 39.4697C18.6237 41.1857 25.29 46.466 27.0061 47.654L29.9102 45.5419C30.3723 45.1459 30.7683 44.8159 31.2963 44.4859C31.7583 44.0899 32.1543 43.7598 32.6164 43.3638C33.0784 43.0338 33.4744 42.7038 34.0024 42.3078C34.4644 41.9118 34.8605 41.5818 35.3225 41.1857L36.6425 40.0637C37.0386 39.7337 37.6326 39.2717 37.8966 38.8756C35.7845 37.7536 33.7384 37.9516 31.4943 37.2916C31.0983 37.1596 31.1643 37.1596 30.9003 37.3576L29.2502 38.7436C28.8542 39.0076 28.5242 39.2717 28.1282 39.6017L27.0061 40.3937C26.2801 39.8657 25.8841 39.5357 25.356 39.0736L23.706 37.7536C22.9139 37.1596 23.1779 37.0936 22.5179 37.2916C20.2078 37.9516 18.2937 37.7536 16.1816 38.8756Z" fill="#3A3A3A" fill-opacity=".60" />
<path fill-rule="evenodd" clip-rule="evenodd" d="M20.3401 29.4373C20.4061 29.1733 21.2642 27.9852 21.5282 27.5892C21.5942 27.3252 22.1882 26.4012 22.9802 25.4111C23.9703 24.1571 25.1583 22.771 25.5543 22.573C25.4223 23.497 21.1322 28.5792 20.3401 29.4373ZM26.7424 11.2865V15.3127C26.7424 16.8307 27.0064 17.9528 27.0064 19.4708C27.4024 14.9827 27.4024 10.9565 27.1384 6.46828H27.0064C27.0064 8.25036 26.7424 9.57042 26.7424 11.2865ZM33.8047 29.5033C33.4747 29.5693 28.3265 22.903 28.4585 22.507C28.7225 22.639 31.0326 25.2791 31.3626 25.7411C31.6926 26.2031 33.7387 29.2393 33.8047 29.5033ZM24.8943 19.6689C24.6303 19.6689 24.4983 19.6029 24.3003 19.5369L19.8781 18.4808L15.8519 16.9627C16.3139 16.9627 18.228 17.2928 20.1421 17.8208C22.3202 18.4808 24.4983 19.4048 24.8943 19.6689ZM29.2505 19.6689C29.3165 19.6029 29.2505 19.6689 29.3825 19.6029C29.4485 19.6029 29.5145 19.5369 29.5145 19.5369L31.4286 18.8108C33.4087 17.9528 35.1248 17.6228 37.3689 17.0947C37.6989 17.0287 38.1609 16.8967 38.5569 16.8967C38.3589 17.0287 34.8608 18.3488 34.4647 18.4808C33.1447 18.8768 31.6926 19.0088 30.3726 19.4048C29.9765 19.4708 29.5805 19.6689 29.2505 19.6689ZM27.0064 0C26.6104 1.78208 25.6204 2.83812 24.7623 3.96017C24.5643 4.15818 24.4983 4.22418 24.3663 4.42219L23.5083 5.34623C23.3103 5.54424 23.1782 5.67625 23.0462 5.80825C22.8482 6.00626 22.7822 6.13827 22.6502 6.33628C20.8021 8.77838 22.1222 11.8805 23.3763 14.3886L25.2903 17.7548C25.4883 18.0188 25.8844 18.6128 25.9504 18.8108L24.8943 17.6888C24.6303 17.3588 24.2343 17.0287 23.9043 16.6987L22.9142 15.6427C22.1222 14.7846 20.6041 13.5306 19.6141 12.8706C17.436 11.4185 16.0499 11.2865 13.8718 12.5405C12.6838 13.2666 11.2317 14.2566 9.97767 14.7186C9.38364 14.9167 8.12959 15.4447 7.60156 15.4447C7.66757 15.7087 7.60156 15.5767 7.79957 15.7087C8.4596 16.3687 9.31764 16.6327 10.9017 18.6788C11.8918 19.9989 12.6178 21.4509 13.9378 22.045C16.3139 23.101 21.1322 21.913 23.8383 21.3849C24.1683 21.3189 24.8283 21.1209 25.1583 21.1209L24.7623 21.3189C22.7162 22.177 21.3302 22.705 19.2841 23.827C17.832 24.6191 15.3239 26.2031 15.3239 28.3152C15.3239 31.5494 16.1819 32.2094 15.3899 35.9056C15.3239 36.2356 15.2579 36.4336 15.2579 36.7636C15.9839 36.2356 16.512 35.9056 17.37 35.5756C20.6701 34.3215 22.7162 35.3115 24.4983 32.9354C25.3563 31.8134 25.8844 29.8333 26.2804 28.1832C26.5444 27.2592 27.0064 23.563 27.0064 22.507H27.1384C27.1384 25.3451 27.9965 30.6253 29.6465 32.9354C30.7686 34.5855 32.0226 34.5855 34.2007 34.9155C36.3788 35.3115 37.1709 35.6416 38.8209 36.7636C38.6889 35.0475 38.4249 35.7736 38.4249 32.6054C38.4249 28.6453 40.669 27.3252 34.7948 23.827C33.4747 23.035 31.0326 21.979 29.5145 21.3849C29.1845 21.2529 29.0525 21.2529 28.7885 21.0549C29.2505 21.0549 29.7785 21.2529 30.1746 21.3849L34.2007 22.177C35.9168 22.441 38.4909 22.705 40.075 22.111C40.933 21.7149 41.329 21.2529 41.8571 20.5929C42.6491 19.6029 43.1111 18.7448 44.2992 17.3588C44.6292 17.0287 46.1473 15.7087 46.5433 15.6427C46.3453 15.3787 45.7512 15.2467 45.3552 15.1807C42.3191 14.3226 39.679 11.6825 37.8309 11.6825C36.0488 11.6825 34.5307 12.7386 33.2767 13.7286C31.8906 14.9167 30.9006 15.8407 29.7125 17.2268L28.1945 18.8108C28.2605 18.5468 28.4585 18.4148 28.5245 18.2168C29.3825 16.8967 29.9765 15.9067 30.7026 14.4546C31.3626 13.2006 32.3526 11.0225 32.3526 9.2404C32.3526 6.46828 30.9666 6.07227 29.7125 4.35619C29.3825 4.02618 29.1845 3.82817 28.8545 3.43215C27.4684 1.65007 27.3364 0.46202 27.0064 0Z" fill="#3A3A3A" fill-opacity="0.9" />
</svg>
