<?xml version='1.0' encoding='utf-8'?>
<svg xmlns="http://www.w3.org/2000/svg" id="Layer_1" viewBox="0 0 371.62 300.03"><path d="M352.29,48.05c-23.04,25.47-60.66,56.79-77.38,85.72-3.85,6.66-4.66,6.92,2.05,10.89,7.39,4.39,36.8,14.92,39.74,19.06.46.65,1.01,1.02.36,1.86-1.79,3.56-19.97,8.09-24.5,9.35-12.23,3.39-29.39,5.13-40.25,8.98-6.25,2.22-19.66,19.45-24.55,25.41-14.82,18.06-31.04,39.58-43.66,59.19-2.04,3.16-9.52,13.48-7.12,16.53,2.5,3.17,24.39,2.94,22.11,14.26-2.38-.53-3.19-2.45-5.66-3.52-9.64-4.14-34.2-2.82-44.45.06-4.1,1.15-6.93,3.23-10.86,4.19-1.51-7.73,4.49-8.31,8.81-12.48-3.25-.14-6.64.73-9.71,1.67-4.77,1.48-8.47,4.58-13.06,5.67-1.82-11.27,14.8-14.24,23.14-14.68,6.96-.37,13.16,2.26,19.42-1.9,5.67-3.77,13.77-21.22,16.84-27.97,3.44-7.57,9.14-17.21,6.75-25.46-2.63-4.45-26.15-3.07-30.93-.92-7.25,3.26-27.28,25-33.4,31.98-1.88,2.15-7.79,8.65-6.91,11.3.84,2.53,18.96,2.5,17.57,10.75-5.37-.96-10.23-3.2-15.8-3.66-12.55-1.02-26.51.29-37.83,5.87l.7-4.08,7.38-6.2c-3.28-1.29-18.8,6.16-19.83,5.13-.55-2.85,1.75-4.59,3.73-6.17,11.43-9.15,28.88.17,40.71-10.73,4.35-4.01,22.23-29.28,22.99-34.34.8-5.4-2.1-6.58-6.22-8.87-5.25-2.92-11.67-4.8-17.15-7.83-26.3-14.51-38.65-37.76-49.02-64.85-6.05-15.79-10.18-38.65-24.63-48.84-12.19-8.59-28.44-7.06-41.67-12.69.04-.96,10.97-6.31,12.72-7.11,7.69-3.5,16.27-5.27,23.55-8.78,5.98-2.88,11.68-7.75,17.59-11.05,28.29-15.82,59.03-16.84,81.69,8.93,5.59,6.35,11.38,19.64,18.22,22.92,8.14,3.91,27.53,6.78,37.1,8.45,24.72,4.3,31.13,8.09,52.23-7.56,28.5-21.14,51.4-49.33,77.94-72.67,8.57-7.53,19.46-15.92,31.8-13.41,3.02.61,4.84,3.89,6.81,4.24,3.76.68,8.04-2.91,10.8,3.14,5.6,12.32-10.32,31.55-18.16,40.22Z" fill="#EEEAE0" /><g id="mark"><path id="Left---green" d="M267.2,213.65l20.55-20.75v96.46l-20.55-20.51v-55.21Z" fill-rule="evenodd" fill="#BDB6A8" fill-opacity="0.62" /><path id="Right---blue" d="M346.6,213.85l-20.83-20.93.42,96.45,20.55-20.51-.14-55.01Z" fill-rule="evenodd" fill="#BDB6A8" fill-opacity="0.62" /><path id="Cross---blue" d="M287.73,192.92l53.42,81.52-14.95,14.95-53.45-81.34,14.98-15.13Z" fill-rule="evenodd" fill="#BDB6A8" fill-opacity="0.62" /></g></svg>