<?xml version='1.0' encoding='utf-8'?>
<svg xmlns="http://www.w3.org/2000/svg" id="Layer_1" viewBox="0 0 19.83 24.3"><path d="M10.33,0c2.68,0,4.94.87,6.76,2.62,1.82,1.75,2.74,3.98,2.74,6.69s-.91,4.94-2.74,6.69c-1.82,1.75-4.08,2.62-6.76,2.62h-2.67c-.48,0-.86.39-.86.86v3.94c0,.49-.39.88-.88.88H.8c-.44,0-.8-.36-.8-.8V.86c0-.48.39-.86.86-.86h9.47ZM8.71,5.96c.22-1.04,1.68-1.04,1.91,0v.05s.01,0,.01,0c0,.03.01.06.02.1.29,1.25,1.29,2.21,2.54,2.43,1.06.19,1.06,1.74,0,1.92-1.26.22-2.26,1.19-2.54,2.45l-.03.13c-.23,1.03-1.69,1.03-1.91,0l-.02-.12c-.27-1.27-1.27-2.24-2.53-2.46-1.06-.19-1.06-1.73,0-1.92,1.25-.22,2.25-1.19,2.53-2.45l.02-.09v-.04Z" fill="#F5F5F5" fill-rule="evenodd" /></svg>