<?xml version="1.0" encoding="UTF-8"?><svg id="main_logo" xmlns="http://www.w3.org/2000/svg" xmlns:xlink="http://www.w3.org/1999/xlink" viewBox="0 0 392.9 225.3"><defs><linearGradient id="linear-gradient" x1="-3206.54" y1="468.3" x2="-3205.64" y2="468.3" gradientTransform="translate(493090.45 -367237.32) rotate(-45) scale(189.7 -189.7)" gradientUnits="userSpaceOnUse"><stop offset="0" stop-color="#cb1f3e"/><stop offset=".2" stop-color="#d54b34"/><stop offset=".5" stop-color="#dd6f2c"/><stop offset=".7" stop-color="#e48926"/><stop offset=".9" stop-color="#e79923"/><stop offset="1" stop-color="#e99f22"/></linearGradient><linearGradient id="linear-gradient-2" x1="-3210.03" y1="472.12" x2="-3209.13" y2="472.12" gradientTransform="translate(724745.88 -538595.98) rotate(-45) scale(278.3 -278.3)" gradientUnits="userSpaceOnUse"><stop offset="0" stop-color="#2e61a9"/><stop offset=".2" stop-color="#3161a8"/><stop offset=".3" stop-color="#375fa3"/><stop offset=".3" stop-color="#4a5a98"/><stop offset=".4" stop-color="#685285"/><stop offset=".5" stop-color="#93476a"/><stop offset=".7" stop-color="#c93949"/><stop offset=".7" stop-color="#d23744"/><stop offset="1" stop-color="#e99f22"/></linearGradient></defs><path d="M162.2,188.5c-3.5,1.8-7.2,3.6-11,5.4h0c-2.7,1.3-5.4,2.6-8,3.9-2.7-1.3-5.3-2.6-8-3.9h0c-3.8-1.8-7.5-3.6-11-5.4-2.2-1.1-4.2-2.2-6.2-3.3-.6-.4-1.3-.7-1.9-1.1-.5-.3-1-.6-1.5-.9h0c-13.1-7.9-25.8-16.5-38-25.6h0c-.4-.3-.8-.6-1.3-1-3-2.2-5.9-4.5-8.7-6.8-1.3-1-2.6-2-3.8-3.1-.7-.6-1.4-1.2-2.2-1.8-1.9-1.6-3.7-3.2-5.5-4.8-1.4-1.3-2.8-2.6-4.2-3.9-.1-.1-.3-.3-.4-.4-1.1-1.1-2.2-2.2-3.3-3.3h0c-4.3-4.4-8.1-9.1-11.3-14-3.2-4.9-5.9-10.2-7.9-15.8h0c-2.3-6.6-3.4-13.2-3.4-19.9h0c0-4.7.5-9.5,1.6-14.4,1-4.6,2.7-9.1,5.1-13.2,2.3-4.2,5.2-8,8.6-11.5,6.8-7,15.6-12.4,25.3-15.5h0c7.4-2.4,15-3.4,22.6-3.4h4.6c.6,0,1.3,0,1.9.1.6,0,1.1.1,1.7.2.5,0,1,0,1.5.2.7,0,1.3.2,2,.2.4,0,.8.1,1.2.2.7.1,1.5.2,2.2.3.3,0,.6.1.9.2.8.1,1.6.3,2.4.5.2,0,.4,0,.7.1.9.2,1.8.4,2.6.6h.4c1,.2,1.9.5,2.9.7h0c2.5-3.4,5.2-6.6,8.2-9.6,3.5-3.6,7.4-7,11.4-10-3.4-1.3-6.8-2.4-10.3-3.4h0C111.2,1.9,99.7,0,87.9,0h0C78,0,67.9,1.4,57.8,4.6h0c-13.5,4.3-25.7,11.8-35.5,21.8h0c-4.9,5-9.1,10.6-12.5,16.8-3.4,6.1-6,12.8-7.6,19.9-1.4,6.5-2.2,13.1-2.2,19.7h0c0,9.4,1.6,18.8,4.7,28h0c2.7,7.8,6.3,14.9,10.6,21.3,4.2,6.4,9.1,12.3,14.2,17.6h0c10.2,10.6,21.6,19.4,32.3,27.5h0c12.9,9.7,26.3,18.8,40.1,27.1h0c3.6,2.1,7.3,4.2,11.1,6.1s7.7,3.8,11.5,5.6h0c4.6,2.2,9.1,4.3,13.1,6.4l5.6,2.8,5.6-2.8c4-2,8.5-4.2,13.1-6.4h0c3.8-1.8,7.7-3.7,11.5-5.6s7.6-3.9,11.1-6.1h0c.5-.3,1-.6,1.5-.9-7.7-5.1-15.2-10.3-22.4-15.7-.5.2-.9.5-1.4.7v.1Z" fill="url(#linear-gradient)"/><path d="M390.8,63.2c-1.6-7.1-4.2-13.8-7.6-19.9-3.4-6.1-7.7-11.8-12.5-16.8-9.7-10-21.9-17.5-35.5-21.8-10-3.2-20.2-4.6-30.1-4.6-11.8,0-23.3,2-34.2,5.1-3.5,1-6.9,2.2-10.3,3.4,4.1,3,7.9,6.4,11.4,10,3,3.1,5.7,6.3,8.2,9.6,1-.3,1.9-.5,2.9-.7h.4c.9-.2,1.7-.4,2.6-.6.2,0,.4,0,.7-.1.8-.2,1.6-.3,2.4-.5.3,0,.6-.1.9-.2.7-.1,1.5-.2,2.2-.3.4,0,.8-.1,1.2-.2.7,0,1.3-.2,2-.2.5,0,1-.1,1.5-.1.6,0,1.1-.1,1.7-.2.6,0,1.3,0,1.9-.1h4.6c7.6,0,15.2,1.1,22.6,3.4,9.7,3.1,18.4,8.5,25.3,15.5,3.4,3.5,6.3,7.4,8.6,11.5,2.3,4.2,4,8.6,5.1,13.2,1.1,4.9,1.6,9.6,1.6,14.4,0,6.7-1.1,13.3-3.4,19.9-2,5.7-4.6,10.9-7.9,15.8-3.2,4.9-7.1,9.6-11.3,14-8.5,8.9-18.8,16.9-29.4,24.9-12.1,9.2-24.8,17.7-38,25.6-2.8,1.7-6.1,3.5-9.6,5.2-3.5,1.8-7.2,3.6-11,5.4-2.7,1.3-5.4,2.6-8,3.9-2.7-1.3-5.3-2.6-8-3.9-3.8-1.8-7.5-3.6-11-5.4-.5-.2-1-.5-1.4-.7-.7-.4-1.4-.7-2-1.1-.1,0-.3-.1-.4-.2-.6-.3-1.1-.6-1.7-.9-.3-.2-.6-.3-.9-.5-.4-.2-.8-.4-1.2-.7-.7-.4-1.4-.8-2-1.2-1.7-1-3.2-2.1-4.9-3-8.9-4.7-16.7-10.8-24.8-16.6-1.6-1.1-3.1-2.3-4.7-3.4h0c-1.2-.9-2.4-1.7-3.6-2.6-.4-.3-.8-.6-1.3-1-1.7-1.3-3.4-2.6-5.1-3.9-2.5-2-5-3.9-7.5-5.9-.7-.6-1.4-1.2-2.2-1.8-3.5-2.9-6.9-6-10.1-9.1-1.1-1.1-2.2-2.2-3.3-3.3-4.3-4.4-8.1-9.1-11.3-14s-5.9-10.2-7.9-15.8c-2.3-6.6-3.4-13.2-3.4-19.9,0-4.7.5-9.5,1.6-14.3,1-4.6,2.7-9.1,5.1-13.2.4-.8.9-1.6,1.4-2.4.3-.4.6-.9.8-1.3.7-1.1,1.6-2.2,2.4-3.3.3-.4.7-.9,1.1-1.3.3-.3.5-.7.8-1,.7-.8,1.4-1.6,2.1-2.3,5-5.2,11.1-9.5,17.9-12.6,2.2-.8,4.5-1.5,6.7-2.2,8.4-2.4,16.9-3.9,25.3-4.1h2c7.6,0,15.2,1.1,22.6,3.4,2.5.8,5,1.8,7.4,2.9,6.7,3.1,12.8,7.4,17.9,12.6.7.7,1.4,1.5,2.1,2.3.3.3.6.6.8,1,.4.4.7.9,1.1,1.3.8,1.1,1.6,2.1,2.4,3.3h0c.3.4.6.9.8,1.3.5.8,1,1.6,1.4,2.4,2.3,4.2,4,8.6,5.1,13.2,1.1,4.9,1.6,9.6,1.6,14.3h0c0,6.7-1.1,13.3-3.4,19.9h0c-2,5.7-4.6,10.9-7.9,15.8-3.2,4.9-7.1,9.6-11.3,14h0l-3.3,3.3-.4.4c-1.4,1.3-2.8,2.6-4.2,3.9-1.8,1.6-3.6,3.2-5.5,4.8-.7.6-1.4,1.2-2.2,1.8-1.3,1-2.5,2.1-3.8,3.1-2.9,2.3-5.8,4.5-8.7,6.8-.4.3-.8.6-1.3,1h0c-1.2.9-2.4,1.7-3.6,2.6,6.8,4.6,13.8,9.1,20.9,13.4.4.3.9.5,1.4.8h0c.5-.4,1.1-.8,1.6-1.3.8-.6,1.5-1.2,2.3-1.7.6-.4,1.1-.9,1.7-1.3.7-.6,1.5-1.2,2.2-1.8.6-.4,1.1-.9,1.7-1.4.7-.6,1.5-1.2,2.2-1.8.6-.5,1.1-.9,1.7-1.4.8-.6,1.5-1.3,2.2-1.9.5-.5,1.1-.9,1.6-1.4.8-.7,1.5-1.4,2.3-2.1.5-.5,1-.9,1.5-1.4.8-.8,1.7-1.6,2.5-2.4.4-.4.8-.8,1.3-1.2,1.2-1.2,2.5-2.4,3.7-3.7h0c5.1-5.3,9.9-11.1,14.2-17.6,4.2-6.4,7.9-13.5,10.6-21.3,3.2-9.2,4.7-18.6,4.7-28h0c0-6.6-.8-13.2-2.2-19.7h0c-1.6-7.1-4.2-13.8-7.6-19.9-.3-.6-.7-1.2-1-1.8h0c-.5-.8-1-1.6-1.5-2.4,0,0-.1-.2-.2-.3-.5-.7-.9-1.4-1.4-2.1-.2-.3-.4-.6-.6-.8-.4-.5-.7-1-1.1-1.5-.6-.8-1.2-1.6-1.9-2.4-1.5-1.9-3.2-3.7-4.9-5.5-3-3.1-6.3-6-9.8-8.6-1.9-1.4-3.9-2.8-5.9-4-3.3-2.1-6.8-3.9-10.4-5.6-3-1.4-6.1-2.5-9.3-3.6-19.8-6.3-41.1-5.5-61.1-.6-10.8,2.6-21.4,6.9-30.4,13.6-14,10.5-24.6,28.5-28.3,45.4-1.4,6.5-2.2,13.1-2.2,19.7,0,9.4,1.6,18.8,4.7,28,2.7,7.8,6.3,14.9,10.6,21.3,4.2,6.4,9.1,12.3,14.2,17.6,1.2,1.3,2.4,2.5,3.7,3.7.4.4.8.8,1.3,1.2.8.8,1.7,1.6,2.5,2.4.5.5,1,.9,1.5,1.4.8.7,1.5,1.4,2.3,2.1.5.5,1.1.9,1.6,1.4.7.6,1.5,1.3,2.3,1.9.6.5,1.1.9,1.7,1.4.7.6,1.5,1.2,2.2,1.8.6.5,1.1.9,1.7,1.4.8.6,1.5,1.2,2.3,1.8.5.4,1.1.9,1.6,1.3.8.6,1.5,1.2,2.3,1.8.5.4,1.1.8,1.6,1.2,1.3,1,2.5,1.9,3.8,2.9,4.4,3.4,8.7,6.8,13.3,9.9,2.4,1.6,4.7,3.1,7.1,4.7,1,.7,2,1.3,3,2,1.6,1.1,3.2,2.1,4.9,3.2,3.4,2.2,6.9,4.4,10.3,6.5.5.3,1,.6,1.5.9,3.6,2.1,7.3,4.2,11.1,6.1,3.8,1.9,7.7,3.8,11.5,5.6,4.6,2.2,9.1,4.3,13.1,6.4l5.6,2.8,5.6-2.8c4-2,8.5-4.2,13.1-6.4,3.8-1.8,7.7-3.7,11.5-5.6s7.6-3.9,11.1-6.1c13.8-8.3,27.3-17.4,40.1-27.1,10.8-8.1,22.1-16.9,32.3-27.5,5.1-5.3,9.9-11.1,14.2-17.6,4.2-6.4,7.9-13.5,10.6-21.3,3.2-9.2,4.7-18.6,4.7-28,0-6.6-.8-13.2-2.2-19.7h.1ZM196.6,196.9h0ZM278.4,183.3h0Z" fill="url(#linear-gradient-2)"/></svg>