<svg xmlns="http://www.w3.org/2000/svg" viewBox="0 0 24 24" fill="none">
  <path
    fill="black"
    d="M12 .297c-6.63 0-12 5.373-12 12 0 5.303 3.438 9.8 8.205 11.385.6.113.82-.258.82-.577 0-.285-.01-1.04-.015-2.04-3.338.724-4.042-1.61-4.042-1.61-.546-1.385-1.333-1.755-1.333-1.755-1.09-.745.082-.729.082-.729 1.205.084 1.838 1.236 1.838 1.236 1.07 1.834 2.809 1.304 3.495.997.108-.776.418-1.305.762-1.605-2.665-.303-5.467-1.332-5.467-5.93 0-1.31.468-2.382 1.235-3.22-.135-.304-.54-1.523.105-3.176 0 0 1.005-.322 3.3 1.23a11.52 11.52 0 0 1 3.005-.404c1.02.005 2.047.138 3.005.404 2.295-1.552 3.3-1.23 3.3-1.23.645 1.653.24 2.872.12 3.176.765.838 1.23 1.91 1.23 3.22 0 4.61-2.805 5.625-5.475 5.922.435.375.81 1.102.81 2.222 0 1.606-.015 2.896-.015 3.286 0 .315.21.69.825.57C20.565 22.092 24 17.592 24 12.297c0-6.627-5.373-12-12-12Z"
  />
</svg>
