<svg xmlns="http://www.w3.org/2000/svg" viewBox="0 0 7083.94 7553" fill="#808080">
  <polygon points="2195.38 3776.32 3297.59 2674.1 3297.4 0 1881.17 817.66 1881.17 1700.09 2533.38 1323.54 2533.38 2357.55 1114.63 3776.31 1114.62 3776.31 0 4890.93 0 5648.88 1394.13 6453.77 1394.13 5571.34 764.22 5207.47 2195.38 3776.32 2195.38 3776.32"/>
  <polygon points="2195.37 3776.32 2195.38 3776.32 764.21 2345.15 1394.12 1981.29 1394.12 1098.86 0 1903.75 0 2661.7 1114.62 3776.32 1114.61 3776.32 2533.38 5195.08 2533.38 6229.09 1881.16 5852.54 1881.16 6734.97 3297.39 7552.63 3297.59 4878.53 2195.37 3776.32"/>
  <polygon points="7083.94 1904.96 5689.01 1099.6 5689.01 1982.03 6319.7 2346.16 6319.7 3776.32 6319.7 5206.48 5689.01 5570.6 5689.01 6453.04 7083.94 5647.67 7083.91 3776.32 7083.94 1904.96"/>
  <polygon points="4549 1323.84 5201.96 1700.83 5201.96 818.4 3784.45 0 3784.45 2876.03 2883.98 3776.5 3784.45 4676.97 3784.45 7553 5201.96 6734.6 5201.96 5852.17 4549 6229.16 4549 4360.76 3964.74 3776.5 4549 3192.24 4549 1323.84"/>
</svg>
