<svg xmlns="http://www.w3.org/2000/svg" viewBox="0 0 24 24" fill="none">
  <path
    fill="black"
    d="M20.447 20.452H16.89V14.87c0-1.332-.027-3.045-1.856-3.045-1.857 0-2.142 1.45-2.142 2.948v5.68H9.336V9h3.414v1.561h.049c.476-.9 1.637-1.85 3.37-1.85 3.605 0 4.272 2.372 4.272 5.456zM5.337 7.433a2.063 2.063 0 1 1 0-4.127 2.063 2.063 0 0 1 0 4.127M7.119 20.452H3.555V9h3.564zM22.225 0H1.771C.792 0 0 .774 0 1.729v20.542C0 23.227.792 24 1.771 24h20.451C23.2 24 24 23.227 24 22.271V1.729C24 .774 23.2 0 22.222 0Z"
  />
</svg>
