<svg width="7134" height="7640" viewBox="0 0 7134 7640" fill="none" xmlns="http://www.w3.org/2000/svg">
<path d="M2220.38 3819.62L3322.59 2717.4L3322.4 43.3013L1906.17 860.961V1743.39L2558.38 1366.84V2400.85L1139.63 3819.61H1139.62L25 4934.23V5692.18L1419.13 6497.07V5614.64L789.22 5250.77L2220.38 3819.62Z" stroke="#2168AF" stroke-width="50" stroke-linecap="square" stroke-dasharray="120 120"/>
<path d="M2220.37 3819.62H2220.38L789.21 2388.45L1419.12 2024.59V1142.16L25 1947.05V2705L1139.62 3819.62H1139.61L2558.38 5238.38V6272.39L1906.16 5895.84V6778.27L3322.39 7595.93L3322.59 4921.83L2220.37 3819.62Z" stroke="#2168AF" stroke-width="50" stroke-linecap="square" stroke-dasharray="120 120"/>
<path d="M7108.94 1948.26L5714.01 1142.9V2025.33L6344.7 2389.46V3819.62V5249.78L5714.01 5613.9V6496.34L7108.94 5690.97L7108.91 3819.62L7108.94 1948.26Z" stroke="#2168AF" stroke-width="50" stroke-linecap="square" stroke-dasharray="120 120"/>
<path d="M4574 1367.14L5226.96 1744.13V861.701L3809.45 43.3013V2919.33L2908.98 3819.8L3809.45 4720.27V7596.3L5226.96 6777.9V5895.47L4574 6272.46V4404.06L3989.74 3819.8L4574 3235.54V1367.14Z" stroke="#2168AF" stroke-width="50" stroke-linecap="square" stroke-dasharray="120 120"/>
</svg>
