<?xml version="1.0" encoding="UTF-8"?><svg id="Layer_1" xmlns="http://www.w3.org/2000/svg" viewBox="0 0 261.995 261.995"><path d="M51.402,174.27l51.665-28.848.787-2.623-.787-1.311h-2.623l-8.654-.525-29.373-.787-25.701-1.311-24.914-1.311-6.294-1.311-5.507-7.868.525-3.934,5.245-3.409,7.605.525,16.522,1.311,24.914,1.574,18.096,1.049,26.75,3.147h4.196l.525-1.836-1.311-1.049-1.049-1.049-25.963-17.309-27.799-18.358-14.686-10.753-7.868-5.245-3.934-5.245-1.574-11.015,7.081-7.868,9.704.787,2.36.525,9.704,7.605,20.981,15.998,27.012,20.456,3.934,3.147,1.574-1.049.262-.787-1.836-2.885-14.424-27.275-15.735-27.275-7.081-11.277-1.836-6.819c-.787-2.623-1.049-5.245-1.049-7.868l7.868-11.015,4.721-1.311,11.015,1.574,4.196,3.672,6.819,15.735,10.753,24.39,17.047,33.044,5.245,9.966,2.623,8.917.787,2.623h1.836v-1.311l1.311-18.883,2.623-22.816,2.623-29.373.787-8.392,4.196-9.966,7.868-5.245,6.819,2.885,5.245,7.605-.787,4.721-2.885,20.194-6.819,31.733-3.934,21.505h2.36l2.623-2.885,10.753-14.162,18.096-22.554,7.868-9.179,9.441-9.704,6.032-4.721h11.277l8.13,12.326-3.672,12.851-11.539,14.686-9.704,12.326-13.9,18.62-8.392,14.949.787,1.049h1.836l31.471-6.819,16.784-2.885,19.932-3.409,9.179,4.196,1.049,4.196-3.672,8.917-21.505,5.245-25.177,5.245-37.503,8.654-.525.262.525.787,16.784,1.574,7.343.525h17.833l33.044,2.623,8.654,5.245,4.983,7.081-.787,5.245-13.375,6.819-17.833-4.196-41.961-9.966-14.162-3.409h-2.098v1.049l12.064,11.802,21.767,19.669,27.799,25.439,1.311,6.294-3.409,5.245-3.672-.525-24.128-18.358-9.441-7.868-20.981-17.833h-1.311v1.836l4.721,7.081,25.701,38.552,1.311,11.802-1.836,3.672-6.819,2.623-7.081-1.574-15.211-20.981-15.735-23.603-12.326-21.505-1.311,1.049-7.605,79.202-3.409,3.934-7.868,3.147-6.556-5.245-3.672-7.868,3.672-16.26,4.196-20.981,3.409-16.784,3.147-20.718,1.836-6.819v-.525h-1.836l-15.735,21.767-23.603,32.258-18.883,19.932-4.458,1.836-7.868-3.934.787-7.343,4.196-6.032,26.226-33.569,15.735-20.718,10.49-12.064-.262-1.311h-.787l-69.236,45.108-12.326,1.574-5.245-5.245.525-7.868,2.623-2.623,20.981-14.424h-.262Z"/></svg>