<?xml version="1.0" encoding="UTF-8"?><svg id="Layer_2" xmlns="http://www.w3.org/2000/svg" viewBox="0 0 33.16 24.73"><g id="Layer_1-2"><path d="M32.43,0h-6.23c-1.54,0-3.01.65-4.05,1.79l-.05.06-10.04,10.63c-.35.2-.75.32-1.18.32-.07,0-.14,0-.2,0-1.45-.12-2.32-1.67-1.78-3.02L12.79,0h-5.93c-1.3,0-2.46.83-2.88,2.06L.87,11.13c-.85,2.46.81,5.16,3.41,5.34.1,0,.19.01.28.01h.44c1.12-.01,2.21-.24,3.22-.67,1-.44,1.92-1.07,2.68-1.89L21.63,2.56c.96-.35,2.06.77,1.43,1.81,0,0-10.38,15.17-13.7,19.81-.19.28-.51.44-.84.44-.57,0-1.03-.46-1.03-1.03v-5.25H0v2.51c0,2.14,1.73,3.88,3.87,3.88l15.26-.02L33.07,1.09c.26-.49-.09-1.09-.64-1.09Z" fill="#3f3239"/></g></svg>