<?xml version="1.0" encoding="UTF-8"?><svg xmlns="http://www.w3.org/2000/svg" fill="#D97757" viewBox="0 0 248 248"><path d="M86.971,118.191c.153-2.962-3.293-3.257-4.905-4.543-4.414-3.521-8.678-7.146-13.193-10.633-2.414-1.865-4.761-2.34-6.933-5.39-3.981-5.589-1.66-12.34,3.699-15.965,9.12-6.17,18.41,7.284,27.082,8.597l-4.243-8.489c-8.947-13.66-17.082-27.883-25.446-41.923-1.548-2.599-4.8-6.14-5.494-9.294-1.703-7.732,2.5-14.465,4.963-21.455,2.525-1.652,4.365-2.355,7.49-1.675.564.123,4.151,1.611,4.649,1.921,2.339,1.458,4.369,7.273,5.875,9.735,11.93,19.503,32.198,50.471,38.417,71.674.31,1.058.135,2.058,1.316,2.792l2.023-12.763c3.149-17.943,3.504-36.759,4.928-55.047.583-7.494-.548-11.967,4.951-18.053,3.347-3.703,6.087-4.66,10.664-1.607,1.243.829,4.785,4.416,4.97,5.71.468,3.259.299,11.344-.05,14.769-1.902,18.68-6.961,37.146-8.214,55.869-.189,2.831.199,5.815.035,8.659,2.397-.948,3.438-3.744,4.916-5.351,12.63-13.73,23.571-28.503,35.324-42.726,1.738-2.103,8.276-8.934,10.251-10.289,1.439-.987,8.238-3.539,10.026-3.945,2.489-.564,8.001,1.418,9.149,3.731,1.618,3.259,1.142,8.451-.217,11.778-1.977,4.843-6.804,10.738-9.377,15.271-7.268,12.807-14.321,26.414-21.927,38.869-1.683,2.756-4.301,4.793-4.463,8.269l24.401-5.584c8.893-1.603,17.885-3.332,26.738-5.304,2.263-.504,5.097-2.01,6.788-2.249,5.937-.838,10.203.206,14.282,4.601.605,4.807-.856,9.675-3.31,13.763-1.595,2.658-3.216,4.361-6.206,5.3-18.372,5.767-38.35,7.257-56.513,14.14-1.196.453-2.405.899-3.716.806,1.402,2.849,5.84,1.36,8.592,1.675,1.824.209,3.994,1.362,5.82,1.574,6.007.696,12.843.448,18.893.825,7.802.486,27.921.729,33.667,4.948,3.857,2.832,4.335,5.413,3.512,10.111-.779,4.448-4.298,5.827-8.489,6.299-12.031,1.358-24.37-1.908-36.146-3.22-11.604-1.293-23.191-2.217-34.886-3.315,3.233,3.644,6.606,7.458,10.259,10.689,12.391,10.958,26.208,22.797,39.08,33.217.998.808,3.368,1.725,3.888,2.272.572.601,3.239,8.443,3.326,9.422.144,1.617-3.981,6.324-5.316,6.722-4.723,1.405-9.215-4.288-12.646-6.845-11.43-8.514-22.224-17.934-33.634-26.341-1.208-.89-7.215-6.316-8.242-5.312l11.136,23.779c2.767,3.98,4.727,8.427,7.074,12.644,1.746,3.138,7.129,9.659,6.324,13.136-.799,3.451-3.42,5.134-6.909,5.486-6.882.693-11.351-9.207-14.798-13.919-7.407-10.124-14.894-20.271-22.091-30.49-2.264-3.214-4.287-6.656-6.615-9.814-2.195,1.452-.983,6.263-1.266,8.593-1.595,13.145-5.118,26.149-7.974,38.855-1.638,7.288-.614,14.571-9.205,17.081-4.28,1.251-8.25-.6-10.605-4.263-2.27-3.53-2.178-9.681-1.791-13.88.207-2.239,1.396-4.498,1.639-6.577,1.039-8.896,1.965-18.214,2.532-27.045.165-2.575-.182-5.256-.034-7.836-1.476-.239-2.438,1.061-3.293,2.045-7.435,8.557-13.988,18.442-21.345,27.128-4.475,5.283-10.44,7.072-16.742,3.582-4.452-2.466-5.457-10.139-3.162-14.448.858-1.611,2.149-2.276,3.031-3.542,5.482-7.87,12.529-14.836,19.339-21.739l5.741-8.634-15.374,7.217c-3.787,2.066-13.097,9.192-16.398,9.892-.974.207-7.327,1.026-8.018.978-9.818-.68-11.067-12.154-3.727-17.654,9.035-6.771,19.607-12.247,28.706-18.945,2.052-1.511,4.781-4.239,6.597-6.135-2.845-.172-5.827.219-8.659.03-6.086-.405-12.053-1.551-18.077-2.463-2.062-.312-4.322.289-6.398-.175-1.881-.42-6.665-2.912-7.849-4.475-1.211-1.598-2.841-7.798-2.451-9.611.25-1.16,3.823-5.492,4.409-5.492h39.846Z"/></svg>