<?xml version="1.0" encoding="UTF-8"?><svg xmlns="http://www.w3.org/2000/svg" fill="#D97757" viewBox="0 0 248 248"><path d="M130.611,91.758c.394-6.888-.518-14.279-.024-21.104.79-10.909,2.788-23.753,4.197-34.656.238-1.842,2.455-9.188,3.375-10.679,2.599-4.215,10.234-5.744,14.792-4.257.787.403,3.956,5.681,4.117,6.63,1.093,6.468-.647,13.651-1.602,19.894-1.67,10.924-2.946,21.955-4.239,32.961-.293,2.49-1.208,5.381-1.599,7.904,1.417.345,1.646-.542,2.48-1.237,8.469-7.057,18.397-22.496,26.484-27.25,1.974-1.161,5.46-1.635,7.693-2.802,3.175,1.912,6.994,1.426,9.209,4.851,2.145,5.535,2.648,8.454,1.049,14.249-1.647,5.97-4.07,8.047-7.093,12.747-4.683,7.279-9.124,15.28-14.612,21.761-.705.833-1.573,1.076-1.235,2.482,8.753-.096,17.161-3.752,26.016-2.456,3.041.445,4.726,2.65,5.215,5.534.306,1.801-.264,6.988-.78,8.778-1.803,6.249-20.562,9.787-26.319,10.471,1.089,2.659,4.479,1.362,6.855,1.821s7.468,1.845,9.427,2.973c1.87,1.077,4.958,3.952,4.307,6.228-.583,2.04-7.869,7.736-10.301,8.005-2.346.259-8.005-1.338-10.751-1.621-3.876-.399-8.03-.444-11.935-.873l14.431,14.084c2.75,3.518.763,8.241-2.01,11.149-4.957,5.198-10.43,2.649-15.726-.436l3.429,7.727c7.115,11.78,16.82,23.405,23.173,35.52,5.088,9.703-4.259,14.603-12.151,8.844-6.756-4.931-11.137-13.048-16.105-19.442-7.33-9.434-15.019-18.697-22.312-28.115-.562-.726-4.185-4.56-4.97-3.706.96,3.684-.986,6.673-1.475,9.685-2.187,13.464-3.167,26.817-5.088,40.379-.563,3.978-.501,9.053-1.864,13.016-1.612,4.688-12.317,5.813-15.564,2.653-.459-.447-3.148-5.825-3.272-6.648-.615-4.107.467-7.73.833-11.527,1.537-15.947,6.733-32.644,10.1-48.594.471-2.233,2.731-4.641.21-6.397l-6.219,5.351c-9.766,14.84-20.758,28.462-32.225,42.172-1.366,1.634-2.228,3.773-3.7,5.394-3.867,4.258-13.609,11.027-18.646,5.382-1.728-1.936-2.901-7.759-1.807-10.131,2.863-3.697,5.563-7.737,8.446-11.391,9.23-11.695,21.046-23.747,29.284-36.023.504-.751,2.729-3.513,2.128-4.068-1.656-.37-2.438.227-3.753.791-14.417,6.183-29.379,16.216-43.074,23.886-5.506,3.084-9.011,4.136-15.062,1.665-2.52-7.548-.506-10.374,4.829-15.205,13.24-11.99,30.823-21.094,45.425-31.455,1.362-.967,3.302-2.285,4.196-3.653-1.765-.141-3.657.195-5.399.022-16.729-1.664-33.102-4.269-49.622-6.592-8.912-1.253-19.01.048-24.718-8.348-2.999-4.411-.077-8.392,3.72-11.091,5.994-4.26,11.373-1.049,17.714-.423,13.4,1.323,27.112,1.161,40.557,2.429,8.661.817,18.605,2.726,27.263,2.503.696-.018,2.875.388,2.055-1.232-1.196-2.366-9.333-7.22-11.986-9.509-14.466-12.484-28.9-25.126-43.81-37.203-3.257-2.638-15.871-10.561-16.818-13.769-.427-1.444-.372-6.426.278-7.731,1.723-3.46,11.548-4.382,14.483-2.896.885.448,1.876,2.151,2.883,2.904,15.236,11.393,32.439,21.504,46.704,33.482.833.7,1.071,1.576,2.481,1.235,2.083-2.236-12.266-27.602-14.227-31.65-1.052-2.173-1.796-5.334-2.973-7.773-1.664-3.448-7.742-13.203-8.268-15.706-.372-1.772-.47-11.684.225-12.687.361-.521,3.386-2.317,4.164-2.449,3.792-.642,8.994.653,12.295,2.586,3.945,2.311,4.256,6.519,6.428,10.105,3.466,5.721,7.619,11.315,11.111,16.996,9.039,14.703,17.796,29.585,26.78,44.314l2.492,1.224Z"/></svg>