<?xml version="1.0" encoding="UTF-8"?><svg xmlns="http://www.w3.org/2000/svg" fill="#D97757" viewBox="0 0 248 248"><path d="M248,104.987c-3.554,3.733-7.501,4.753-12.193,6.407l-57.25,14.262c-1.968,1.372,3.09,2.298,3.792,2.41,11.887,1.9,23.697,3.676,35.536,5.796,5.866,1.05,15.936,1.662,21.243,3.557,1.351.482,3.224,2.136,4.781,2.791.722,8.231-1.646,12.99-9.916,14.831-3.561.793-4.442-.236-7.133-.393-14.861-.869-29.851-2.554-44.6-4.174-1.852-.203-10.44-2.315-11.138-1.671-.345,1.415.543,1.647,1.236,2.479,4.614,5.535,9.94,8.82,14.892,13.214,6.88,6.104,13.03,12.23,20.277,17.75,2.694,2.052,7.314,4.241,9.506,7.027,2.178,2.767,4.065,9.608-.829,9.995-4.48.355-18.523-5.628-22.251-8.409-1.648-1.229-2.606-3.67-4.683-5.237-6.992-5.274-14.955-9.552-21.513-15.687l-7.383-4.6c-.198,1.477.08,2.556.642,3.901,1.032,2.473,6.951,10.674,8.907,13.413,3.998,5.598,8.395,10.988,12.4,16.533,3.137,4.343,9.57,10.796,9.534,16.166-.006.895-.787,5.646-1.059,6.037-.183.264-5.007,2.943-5.611,3.117-2.288.657-5.443-1.221-7.488-2.51-5.322-8.028-12.052-15.049-17.672-22.835-6.597-9.139-11.937-19.205-19.14-27.98-2.018-2.458-4.18-4.246-4.527.317-.647,8.53-1.482,17.159-2.5,25.607-.868,7.206-2.338,14.392-3.188,21.612l-1.854,22.119c-2.549,3.912-5.157,3.222-8.945,1.785-4.884-1.853-8.328-4.449-9.051-9.955-.638-4.855,1.184-13.778,1.623-18.949,1.082-12.754,3.203-25.413,4.088-38.072.109-1.566,1.024-2.917.849-4.52-1.416-.346-1.647.543-2.48,1.236-11.668,9.709-24.432,29.249-34.721,41.333-2.259,2.654-7.043,8.523-9.498,10.342-3.564,2.64-7.84,1.8-11.745.159-4.431-1.861-4.424-5.002-4.249-9.538,2.261-2.984,4.402-6.175,6.332-9.376,10.287-17.066,23.034-32.885,37.36-46.96l4.121-7.035-7.746,3.41c-15.844,9.184-30.894,20.974-46.523,30.357-4.512,2.709-11.506,7.221-15.54,1.735-4.05-5.507-2.482-11.489,2.441-15.661,12.115-10.266,28.434-18.786,41.698-27.742,4.153-2.804,8.99-6.023,12.445-9.457l-35.17-.048c-7.864.722-16.651,1.458-24.703.81-1.177-.095-6.541-.869-7.109-1.158-.611-.31-3.137-3.992-3.469-4.797-2.516-6.111,1.909-11.564,8.007-12.202,9.753-1.02,25.474.579,35.514,1.747,9.897,1.151,20.829,4.211,30.629,4.918,3.893.281,8.078-.243,12.005-.023.581-.527-1.908-3.84-2.479-4.543-2.331-2.871-5.77-5.456-8.302-8.231-13.794-7.736-29.677-13.25-43.238-21.242-1.121-.66-8.297-5.437-8.61-5.853-.146-.194-1.673-4.196-1.739-4.532-.343-1.741,2.508-7.043,4.235-7.874,2.007-.966,7.521-.127,9.949.372,11.954,2.454,16.799,9.074,26.28,14.227,2.765,1.503,5.831,2.805,9.026,2.956.34-.322-1.726-4.054-2.15-4.873-4.755-9.198-12.323-18.857-9.853-29.864.412-.799,6.296-3.911,7.483-4.09,1.741-.263,8.293-.332,9.76.112.452.137,6.703,4.889,7.574,5.653,8.978,7.885,16.202,26.772,22.862,37.485,1.006,1.618,2.551,3.051,3.599,4.669,1.83.336,1.21-.801,1.234-2.057.201-10.354-.392-20.371-.847-30.572-.193-4.317-.685-17.069,5.388-17.038.566.003,6.674,1.894,7.043,2.127,4.275,2.699,1.857,20.337,2.437,25.67.257,2.364,1.78,3.827,1.689,6.171l2.496-.397c7.605-8.765,15.904-23.058,29.22-15.206.976.576,4.918,4.32,5.52,5.226,4.691,7.052-2.851,17.965-4.969,24.87-1.383,4.508-3.103,7.572,2.799,6.937,16.305-1.753,32.264-5.487,48.175-8.869,2.878-.612,6.069-.556,8.955-1.767l9.481,5.735v6.613Z"/></svg>